<svg xmlns="http://www.w3.org/2000/svg" xmlns:xlink="http://www.w3.org/1999/xlink" viewBox="0 0 3047.49 2520.51"><defs><style>.cls-1{fill:url(#Íîâûé_îáðàçåö_ãðàäèåíòà_11);}.cls-2{fill:url(#Íîâûé_îáðàçåö_ãðàäèåíòà_7);}.cls-3{fill:#f47257;}.cls-4{fill:url(#Íîâûé_îáðàçåö_ãðàäèåíòà_9);}.cls-5{fill:#b7d972;}.cls-6{fill:#50bfa5;}.cls-7{fill:#3c8f7c;}.cls-8{fill:url(#Íîâûé_îáðàçåö_ãðàäèåíòà_9-2);}.cls-9{fill:url(#Íîâûé_îáðàçåö_ãðàäèåíòà_9-3);}.cls-10{fill:#edfdfc;}.cls-11{fill:url(#Íîâûé_îáðàçåö_ãðàäèåíòà_9-4);}.cls-12{fill:url(#Íîâûé_îáðàçåö_ãðàäèåíòà_9-5);}.cls-13{fill:url(#Íîâûé_îáðàçåö_ãðàäèåíòà_9-6);}.cls-14{fill:url(#Íîâûé_îáðàçåö_ãðàäèåíòà_9-7);}.cls-15{fill:url(#Íîâûé_îáðàçåö_ãðàäèåíòà_11-2);}.cls-16{fill:url(#Íîâûé_îáðàçåö_ãðàäèåíòà_11-3);}.cls-17{fill:url(#Íîâûé_îáðàçåö_ãðàäèåíòà_11-4);}.cls-18{fill:url(#Íîâûé_îáðàçåö_ãðàäèåíòà_7-2);}.cls-19{fill:url(#Íîâûé_îáðàçåö_ãðàäèåíòà_11-5);}.cls-20{fill:url(#Íîâûé_îáðàçåö_ãðàäèåíòà_8);}.cls-21{fill:url(#Íîâûé_îáðàçåö_ãðàäèåíòà_8-2);}.cls-22{fill:#fff;}.cls-23{fill:url(#Íîâûé_îáðàçåö_ãðàäèåíòà_8-3);}.cls-24{fill:url(#Íîâûé_îáðàçåö_ãðàäèåíòà_9-8);}.cls-25{fill:url(#Íîâûé_îáðàçåö_ãðàäèåíòà_11-6);}.cls-26{fill:url(#Íîâûé_îáðàçåö_ãðàäèåíòà_9-9);}.cls-27{fill:url(#Íîâûé_îáðàçåö_ãðàäèåíòà_10);}.cls-28{fill:url(#Íîâûé_îáðàçåö_ãðàäèåíòà_10-2);}.cls-29{fill:url(#Íîâûé_îáðàçåö_ãðàäèåíòà_7-3);}.cls-30{fill:url(#Íîâûé_îáðàçåö_ãðàäèåíòà_7-4);}.cls-31{fill:url(#Íîâûé_îáðàçåö_ãðàäèåíòà_9-10);}.cls-32{fill:url(#Íîâûé_îáðàçåö_ãðàäèåíòà_9-11);}.cls-33{fill:url(#Íîâûé_îáðàçåö_ãðàäèåíòà_9-12);}.cls-34{fill:url(#Íîâûé_îáðàçåö_ãðàäèåíòà_7-5);}.cls-35{fill:#f7a491;}.cls-36{fill:#002a24;}.cls-37{fill:#f8a492;}.cls-38{fill:#473b1e;}.cls-39{fill:url(#Íîâûé_îáðàçåö_ãðàäèåíòà_11-7);}.cls-40{fill:url(#Íîâûé_îáðàçåö_ãðàäèåíòà_11-8);}.cls-41{fill:url(#Íîâûé_îáðàçåö_ãðàäèåíòà_11-9);}.cls-42{fill:#f47458;}.cls-43{fill:url(#Íîâûé_îáðàçåö_ãðàäèåíòà_7-6);}.cls-44{fill:url(#Íîâûé_îáðàçåö_ãðàäèåíòà_8-4);}.cls-45{fill:url(#Íîâûé_îáðàçåö_ãðàäèåíòà_7-7);}.cls-46{fill:url(#Íîâûé_îáðàçåö_ãðàäèåíòà_7-8);}.cls-47{fill:#847d3d;}.cls-48{fill:url(#Íîâûé_îáðàçåö_ãðàäèåíòà_8-5);}</style><linearGradient id="Íîâûé_îáðàçåö_ãðàäèåíòà_11" x1="2120.84" y1="1765.13" x2="2578.34" y2="1765.13" gradientUnits="userSpaceOnUse"><stop offset="0" stop-color="#00503e"/><stop offset="1" stop-color="#023222"/></linearGradient><linearGradient id="Íîâûé_îáðàçåö_ãðàäèåíòà_7" x1="2090.84" y1="417" x2="2347.66" y2="853.59" gradientUnits="userSpaceOnUse"><stop offset="0" stop-color="#fb9a2b"/><stop offset="1" stop-color="#e65925"/></linearGradient><linearGradient id="Íîâûé_îáðàçåö_ãðàäèåíòà_9" x1="1049.77" y1="1534.27" x2="2117.07" y2="1534.27" gradientUnits="userSpaceOnUse"><stop offset="0" stop-color="#53cd9f"/><stop offset="1" stop-color="#0d7a5c"/></linearGradient><linearGradient id="Íîâûé_îáðàçåö_ãðàäèåíòà_9-2" x1="1066.06" y1="1385.09" x2="2073.32" y2="1385.09" xlink:href="#Íîâûé_îáðàçåö_ãðàäèåíòà_9"/><linearGradient id="Íîâûé_îáðàçåö_ãðàäèåíòà_9-3" x1="1465.19" y1="1337.53" x2="1733.72" y2="1337.53" xlink:href="#Íîâûé_îáðàçåö_ãðàäèåíòà_9"/><linearGradient id="Íîâûé_îáðàçåö_ãðàäèåíòà_9-4" x1="1752.67" y1="1234.4" x2="1961.59" y2="1234.4" xlink:href="#Íîâûé_îáðàçåö_ãðàäèåíòà_9"/><linearGradient id="Íîâûé_îáðàçåö_ãðàäèåíòà_9-5" x1="1118.12" y1="1518.3" x2="2139.81" y2="1518.3" xlink:href="#Íîâûé_îáðàçåö_ãðàäèåíòà_9"/><linearGradient id="Íîâûé_îáðàçåö_ãðàäèåíòà_9-6" x1="1527.75" y1="1466.31" x2="1804.5" y2="1466.31" xlink:href="#Íîâûé_îáðàçåö_ãðàäèåíòà_9"/><linearGradient id="Íîâûé_îáðàçåö_ãðàäèåíòà_9-7" x1="2060.65" y1="1226.19" x2="1299.38" y2="2082.85" xlink:href="#Íîâûé_îáðàçåö_ãðàäèåíòà_9"/><linearGradient id="Íîâûé_îáðàçåö_ãðàäèåíòà_11-2" x1="1901.61" y1="1887.21" x2="2272.05" y2="1887.21" xlink:href="#Íîâûé_îáðàçåö_ãðàäèåíòà_11"/><linearGradient id="Íîâûé_îáðàçåö_ãðàäèåíòà_11-3" x1="1080.38" y1="1460.14" x2="2206.68" y2="1460.14" xlink:href="#Íîâûé_îáðàçåö_ãðàäèåíòà_11"/><linearGradient id="Íîâûé_îáðàçåö_ãðàäèåíòà_11-4" x1="1021.17" y1="1780.87" x2="1612.58" y2="1780.87" xlink:href="#Íîâûé_îáðàçåö_ãðàäèåíòà_11"/><linearGradient id="Íîâûé_îáðàçåö_ãðàäèåíòà_7-2" x1="1104.31" y1="1655.35" x2="1159.34" y2="1786.51" xlink:href="#Íîâûé_îáðàçåö_ãðàäèåíòà_7"/><linearGradient id="Íîâûé_îáðàçåö_ãðàäèåíòà_11-5" x1="1094.68" y1="1558.23" x2="1619.84" y2="1558.23" xlink:href="#Íîâûé_îáðàçåö_ãðàäèåíòà_11"/><linearGradient id="Íîâûé_îáðàçåö_ãðàäèåíòà_8" x1="1926.16" y1="1228.52" x2="1916.07" y2="1431.22" gradientUnits="userSpaceOnUse"><stop offset="0" stop-color="#c9cd55"/><stop offset="0.51" stop-color="#659c52"/><stop offset="1" stop-color="#287f50"/></linearGradient><linearGradient id="Íîâûé_îáðàçåö_ãðàäèåíòà_8-2" x1="2100.44" y1="1469.82" x2="2025.23" y2="1737.64" xlink:href="#Íîâûé_îáðàçåö_ãðàäèåíòà_8"/><linearGradient id="Íîâûé_îáðàçåö_ãðàäèåíòà_8-3" x1="1851.64" y1="1399.95" x2="1776.43" y2="1667.77" gradientTransform="translate(795.34 -597.79) rotate(24.01)" xlink:href="#Íîâûé_îáðàçåö_ãðàäèåíòà_8"/><linearGradient id="Íîâûé_îáðàçåö_ãðàäèåíòà_9-8" x1="2351.15" y1="2327.24" x2="1940.24" y2="1778.75" xlink:href="#Íîâûé_îáðàçåö_ãðàäèåíòà_9"/><linearGradient id="Íîâûé_îáðàçåö_ãðàäèåíòà_11-6" x1="1901.61" y1="1870.26" x2="2206.68" y2="1870.26" xlink:href="#Íîâûé_îáðàçåö_ãðàäèåíòà_11"/><linearGradient id="Íîâûé_îáðàçåö_ãðàäèåíòà_9-9" x1="601.75" y1="1948.42" x2="2537.64" y2="1948.42" xlink:href="#Íîâûé_îáðàçåö_ãðàäèåíòà_9"/><linearGradient id="Íîâûé_îáðàçåö_ãðàäèåíòà_10" x1="2045.53" y1="1800.81" x2="2176.24" y2="2071.84" gradientUnits="userSpaceOnUse"><stop offset="0" stop-color="#c7a44f"/><stop offset="1" stop-color="#609a3f"/></linearGradient><linearGradient id="Íîâûé_îáðàçåö_ãðàäèåíòà_10-2" x1="2106.37" y1="1771.47" x2="2237.07" y2="2042.51" xlink:href="#Íîâûé_îáðàçåö_ãðàäèåíòà_10"/><linearGradient id="Íîâûé_îáðàçåö_ãðàäèåíòà_7-3" x1="1706.92" y1="642.84" x2="1963.73" y2="1079.43" xlink:href="#Íîâûé_îáðàçåö_ãðàäèåíòà_7"/><linearGradient id="Íîâûé_îáðàçåö_ãðàäèåíòà_7-4" x1="1475.75" y1="715.47" x2="1606.3" y2="715.47" xlink:href="#Íîâûé_îáðàçåö_ãðàäèåíòà_7"/><linearGradient id="Íîâûé_îáðàçåö_ãðàäèåíòà_9-10" x1="1618.61" y1="604.18" x2="1359.96" y2="1295.75" xlink:href="#Íîâûé_îáðàçåö_ãðàäèåíòà_9"/><linearGradient id="Íîâûé_îáðàçåö_ãðàäèåíòà_9-11" x1="1425.17" y1="531.84" x2="1166.52" y2="1223.4" xlink:href="#Íîâûé_îáðàçåö_ãðàäèåíòà_9"/><linearGradient id="Íîâûé_îáðàçåö_ãðàäèåíòà_9-12" x1="1786.42" y1="656" x2="1669.02" y2="1092.59" xlink:href="#Íîâûé_îáðàçåö_ãðàäèåíòà_9"/><linearGradient id="Íîâûé_îáðàçåö_ãðàäèåíòà_7-5" x1="1173.49" y1="956.62" x2="1430.31" y2="1393.21" xlink:href="#Íîâûé_îáðàçåö_ãðàäèåíòà_7"/><linearGradient id="Íîâûé_îáðàçåö_ãðàäèåíòà_11-7" x1="629.72" y1="1413.04" x2="867.85" y2="1413.04" xlink:href="#Íîâûé_îáðàçåö_ãðàäèåíòà_11"/><linearGradient id="Íîâûé_îáðàçåö_ãðàäèåíòà_11-8" x1="900.03" y1="1209.48" x2="1043.91" y2="1209.48" xlink:href="#Íîâûé_îáðàçåö_ãðàäèåíòà_11"/><linearGradient id="Íîâûé_îáðàçåö_ãðàäèåíòà_11-9" x1="889.33" y1="1396.54" x2="971.71" y2="1396.54" xlink:href="#Íîâûé_îáðàçåö_ãðàäèåíòà_11"/><linearGradient id="Íîâûé_îáðàçåö_ãðàäèåíòà_7-6" x1="815.9" y1="1185.65" x2="912.22" y2="1185.65" xlink:href="#Íîâûé_îáðàçåö_ãðàäèåíòà_7"/><linearGradient id="Íîâûé_îáðàçåö_ãðàäèåíòà_8-4" x1="596.31" y1="803.1" x2="1212.66" y2="803.1" xlink:href="#Íîâûé_îáðàçåö_ãðàäèåíòà_8"/><linearGradient id="Íîâûé_îáðàçåö_ãðàäèåíòà_7-7" x1="2190.44" y1="1822.03" x2="2278.6" y2="1822.03" xlink:href="#Íîâûé_îáðàçåö_ãðàäèåíòà_7"/><linearGradient id="Íîâûé_îáðàçåö_ãðàäèåíòà_7-8" x1="2428.42" y1="1481.37" x2="2508.73" y2="1481.37" xlink:href="#Íîâûé_îáðàçåö_ãðàäèåíòà_7"/><linearGradient id="Íîâûé_îáðàçåö_ãðàäèåíòà_8-5" x1="2114.15" y1="671.84" x2="2113.24" y2="838.77" xlink:href="#Íîâûé_îáðàçåö_ãðàäèåíòà_8"/></defs><g id="Layer_1" data-name="Layer 1"><path class="cls-1" d="M2169.75,1792.18c-30.46-25.48-46.08-49.06-48.91-53.53L2228,1671s-.15-.25-.46-.71c.08.13,9,13.26,26.85,27.42a167.34,167.34,0,0,0,78.69,34.3c37.48,6,76.14-6.53,102-18.06a277.5,277.5,0,0,0,48.29-27.4l95,18.36-17.86,82.18c-37.12,28.49-96.13,56.64-150.81,67.49C2318.93,1872.56,2232.29,1844.5,2169.75,1792.18Z"/><path class="cls-2" d="M2324.78,900.53l25.15-13,25,13.32a3.89,3.89,0,0,0,5.67-4.07L2376,868.81l20.4-19.65a3.89,3.89,0,0,0-2.12-6.65l-28-4.24-12.39-25.47a3.89,3.89,0,0,0-7,0l-12.68,25.33L2306.14,842a3.89,3.89,0,0,0-2.2,6.62l20.17,19.89-5,27.89A3.89,3.89,0,0,0,2324.78,900.53Z"/><rect class="cls-3" x="1034.78" y="1412.19" width="1237.26" height="129.51"/><path class="cls-4" d="M1943,1870.58c-279-147.52-582-238.32-893.18-267.62l34.59-405c359.73,33.87,710.12,138.86,1032.71,309.43Z"/><path class="cls-5" d="M1077.2,1528.91q11.79-126.3,23.57-252.59c32.69,3.36,62-17.74,65.55-48,299.9,37.67,592.19,125.25,865.87,259.45-12.18,27.66,2.11,61.82,31.56,77.09l-106.89,227.62c-27.11-14.06-59.19-2.44-71.35,25.21-240.33-117.85-497-194.76-760.37-227.84C1128.7,1559.64,1107.29,1532,1077.2,1528.91Z"/><path class="cls-6" d="M1721,1542.8c-25.14,72.42-102.7,109.32-174.63,87.21-71.89-22.29-118.09-97.38-101.92-172.57s95.92-120,176.81-95S1746.14,1470.51,1721,1542.8Z"/><path class="cls-7" d="M1545.79,1604.51q3-12.12,6-24.25a131,131,0,0,1-29.32-13.73,15.65,15.65,0,0,1-5.64-20.32c.15-.28.3-.56.44-.85a15,15,0,0,1,21.7-5.29,96.49,96.49,0,0,0,26.88,12.44c14.69,4.11,26.18,1.46,28.84-8.72,2.51-9.66-4.18-18.24-22-30-25.7-17-42.11-34.69-36.44-59.6,5.11-22.57,25.94-36.07,56.27-33.41q3-12.13,6-24.28,13.38,3.71,26.73,7.56-2.85,11.21-5.72,22.42a123.14,123.14,0,0,1,23.74,10.58c7.69,4.53,10.4,14,6.2,21.13h0c-4.36,7.37-14.33,9.48-22.07,4.67a88.22,88.22,0,0,0-22.66-10c-17.42-4.94-24.8.71-26.54,7.86-2.07,8.45,6,16.31,26.34,30.92,28.65,19.83,37.22,37.77,30.93,60.54-6.28,22.57-27.66,36.73-58.22,33.37q-3.36,13-6.72,26Q1558.18,1607.95,1545.79,1604.51Z"/><path class="cls-6" d="M1401.87,1454.63q-106.66-24.62-215.22-40.05,2.52-19.47,5-38.94,110,15.61,218.23,40.61Q1405.88,1435.44,1401.87,1454.63Z"/><path class="cls-6" d="M1956.36,1651.52q-99.25-48.54-201.82-88.33,6.48-18.43,13-36.86,103.9,40.32,204.65,89.57Q1964.27,1633.71,1956.36,1651.52Z"/><path class="cls-8" d="M2073.32,1407.22c-287.86,60.14-562,180.66-807.91,355.22l-199.35-344c284.35-201.83,601.29-341.18,934.13-410.72Q2036.76,1207.48,2073.32,1407.22Z"/><path class="cls-5" d="M1244.54,1686.12l-122.85-215.8c26-18.12,35.9-53.52,21.74-79.83,242.29-160.77,506.68-277,783.21-344.36,6.38,29.73,35.88,47.8,66.1,41.21q23.74,124.47,47.48,248.94c-27.81,6.07-45,35.71-38.67,65.42-242.84,59.14-475,161.22-687.78,302.4C1299.62,1677.81,1268.46,1669.44,1244.54,1686.12Z"/><path class="cls-9" d="M1727.5,1287.75c21.65,73.57-15.11,152.22-80.49,180.38-65.44,28-141.23-2.32-171-72.39s4.15-156.43,77.75-188S1705.91,1214.3,1727.5,1287.75Z"/><path class="cls-10" d="M1632.41,1448.25q-4.5-11.57-9-23.12a114.36,114.36,0,0,1-29.27,7.74c-7.49.87-14.26-4.6-15.45-12.57,0-.32-.1-.64-.14-1-1.31-8.79,4.71-17.15,13.07-18a84.19,84.19,0,0,0,26.75-7.19c13.13-6.08,20.14-15.5,16.45-25.28-3.51-9.28-13.22-11.84-32.89-9.91-28.39,2.84-50.34-.81-60-24.21-8.75-21.19-.87-45.17,23-62.35q-4.53-11.55-9.08-23.08,11.92-5.57,23.92-11,4.13,10.74,8.23,21.47a107.67,107.67,0,0,1,23.4-6.69,14.15,14.15,0,0,1,16.3,12.86h0c.88,8.63-5.31,16.65-13.7,17.75a77.08,77.08,0,0,0-22.27,6.47c-15.6,7.14-17.91,16.34-15.23,23.12,3.17,8,13.48,9.16,36.62,7.84,32.15-2.46,48.45,6.36,56.44,28.46,7.9,21.93,0,46.79-24.44,63.55q4.73,12.46,9.46,24.92Q1643.47,1443.1,1632.41,1448.25Z"/><path class="cls-6" d="M1443,1420.6q-92.42,48.27-181.11,105l-17.91-34.15Q1333.79,1434,1427.57,1385Z"/><path class="cls-11" d="M1961.59,1224.52q-100.23,24.54-198,58.12l-10.89-37.55q99.09-34,200.8-58.93Q1957.54,1205.35,1961.59,1224.52Z"/><path class="cls-12" d="M2119.25,1658.86c-299.37-18.15-599.18,25.79-883.64,129.5q-58.74-192.88-117.49-385.77c328.89-119.91,675.54-170.72,1021.69-149.74Q2129.54,1455.86,2119.25,1658.86Z"/><path class="cls-5" d="M1232.7,1709l-71.52-241.43c30-10.64,48.06-42.28,40.15-71.5,277.64-91.33,566.81-133.71,856.63-125.55-.61,30.47,24.43,55.79,55.93,57.42L2103,1581.43c-29-1.51-53,22.61-53.58,53-254.5-7.17-508.44,30-752.25,110.25C1289.24,1715.53,1260.3,1699.18,1232.7,1709Z"/><path class="cls-13" d="M1804.26,1451.52c4.33,76.94-50.44,143.31-121.81,153.23-71.39,9.74-139.46-39.71-152.7-115.42S1570.3,1339,1650.61,1328,1800,1374.71,1804.26,1451.52Z"/><path class="cls-10" d="M1672.61,1581.63q-1.77-12.37-3.55-24.76a117.81,117.81,0,0,1-30.82-.28,14.94,14.94,0,0,1-12.38-16.26c0-.32.05-.64.08-1,.75-8.85,8.66-15.35,17.15-13.95a87,87,0,0,0,28.2.12c14.43-2.39,23.57-9.65,22.19-20.1-1.32-9.9-10.34-15-30.29-18.31-28.81-4.78-49.72-14.13-53.83-39.34-3.74-22.83,9.65-44,37.31-54.25l-3.63-24.74q13.13-2.22,26.28-4.3,1.58,11.49,3.16,23a111.17,111.17,0,0,1,24.75-.27,14.84,14.84,0,0,1,13.16,16.77h0a15.81,15.81,0,0,1-17.71,13.55,79.42,79.42,0,0,0-23.58.35c-17.13,2.78-21.56,11.06-20.49,18.34,1.27,8.62,11.23,12.44,34.48,17.3,32.45,6.15,46.55,19,49.32,42.51,2.72,23.32-10.92,45.27-39,55l3.57,26.63Q1684.77,1579.57,1672.61,1581.63Z"/><path class="cls-6" d="M1491.24,1504.63q-102.85,22.2-204,53.6l-9.81-37.8q102.46-31.83,206.85-54.35Q1487.77,1485.36,1491.24,1504.63Z"/><path class="cls-6" d="M2051.05,1452.41q-105.08-2.84-209.85,3.73-1-19.62-2-39.23,106.14-6.65,212.78-3.78Q2051.5,1432.78,2051.05,1452.41Z"/><rect class="cls-14" x="1034.78" y="1412.19" width="1237.26" height="544.53"/><path class="cls-15" d="M2272.05,1817.7H1965.89c-13.57,0-24.58,11.52-24.58,25.73h0c0,14.22,11,25.74,24.58,25.74h-39.7c-13.57,0-24.58,11.52-24.58,25.74h0c0,14.21,11,25.74,24.58,25.74h6.88c-13.58,0-24.58,11.52-24.58,25.73a26.65,26.65,0,0,0,2.07,10.34h361.49Z"/><rect class="cls-16" x="1080.38" y="1439" width="1126.31" height="42.29"/><rect class="cls-17" x="1021.17" y="1611.78" width="591.41" height="338.18" rx="41.57"/><rect class="cls-18" x="1059.19" y="1679.03" width="145.64" height="84.67"/><rect class="cls-5" x="1316.87" y="1657.58" width="258.27" height="15.81"/><rect class="cls-5" x="1080.64" y="1838.22" width="475.3" height="19.53"/><rect class="cls-5" x="1080.64" y="1884.2" width="475.3" height="19.53"/><rect class="cls-19" x="1094.68" y="1551.22" width="525.16" height="14.04"/><circle class="cls-10" cx="1920.44" cy="1343.59" r="116.96"/><path class="cls-20" d="M2000.77,1287.21a98.14,98.14,0,1,1-136.71-24A98.15,98.15,0,0,1,2000.77,1287.21Z"/><path class="cls-10" d="M1931.76,1412.62l-4.27-15.81a80,80,0,0,1-20.9,1.84,10,10,0,0,1-9.45-9.83v-.64a10,10,0,0,1,10.56-10.08,58.28,58.28,0,0,0,18.9-1.77c9.49-2.57,15-8,13.2-14.65-1.72-6.32-8.12-8.88-21.57-9.71-19.43-1.18-33.84-6.21-38.21-22.36-4-14.65,3.26-28.93,20.13-37.25l-4.28-15.81,16.31-4.41,4,14.65a73.59,73.59,0,0,1,15.78-1.92,10,10,0,0,1,10,9.84h0a10,10,0,0,1-10.18,10.1,53.1,53.1,0,0,0-15.18,1.88c-10.82,2.93-13.06,8.54-11.8,13.2,1.49,5.49,8.26,7.41,23.85,8.91,21.7,1.64,32.17,8.63,36.22,23.62,4,14.81-3.06,30.3-21.3,38.81l4.59,17Z"/><circle class="cls-10" cx="2030.78" cy="1717.9" r="116.96" transform="translate(-619.94 1939.14) rotate(-45)"/><path class="cls-21" d="M2111.11,1661.53a98.14,98.14,0,1,1-136.71-24A98.15,98.15,0,0,1,2111.11,1661.53Z"/><path class="cls-22" d="M2042.11,1786.94l-4.28-15.82a79.11,79.11,0,0,1-20.9,1.84,10,10,0,0,1-9.45-9.83v-.63a10,10,0,0,1,10.56-10.09,58,58,0,0,0,18.9-1.77c9.49-2.56,15-8,13.2-14.64-1.72-6.33-8.12-8.88-21.57-9.72-19.43-1.17-33.84-6.21-38.21-22.36-4-14.65,3.26-28.93,20.13-37.24l-4.28-15.82,16.31-4.41,4,14.65a73.51,73.51,0,0,1,15.78-1.91,10,10,0,0,1,10,9.84h0a10,10,0,0,1-10.18,10.1,52.74,52.74,0,0,0-15.18,1.88c-10.82,2.93-13.06,8.53-11.8,13.19,1.49,5.5,8.26,7.42,23.85,8.92,21.7,1.63,32.17,8.63,36.22,23.61,4,14.82-3.06,30.31-21.3,38.82l4.59,17Z"/><circle class="cls-10" cx="1803.47" cy="1571.48" r="116.96" transform="translate(-25.93 30.26) rotate(-0.95)"/><circle class="cls-23" cx="1803.47" cy="1571.48" r="98.14" transform="translate(-483.34 869.65) rotate(-24.01)"/><path class="cls-10" d="M1773.08,1634.5l5.59-15.41a79.29,79.29,0,0,1-18.16-10.5,10,10,0,0,1-2.09-13.47l.36-.53a10,10,0,0,1,14.44-2.18,58.08,58.08,0,0,0,16.48,9.41c9.25,3.35,16.86,2.07,19.21-4.41,2.24-6.16-1.54-11.94-12.07-20.34-15.23-12.13-24.13-24.53-18.42-40.25,5.17-14.27,19.28-21.81,37.86-18.93l5.58-15.4,15.89,5.76-5.17,14.27a73.49,73.49,0,0,1,14,7.5,9.94,9.94,0,0,1,2.5,13.77h0a10,10,0,0,1-14.13,2.43,53,53,0,0,0-13.51-7.19c-10.54-3.82-15.59-.51-17.24,4-1.94,5.35,2.5,10.81,14.4,21,16.83,13.81,21.38,25.55,16.09,40.14-5.24,14.43-19.92,23-39.74,19.53l-6,16.54Z"/><rect class="cls-24" x="1676.97" y="1638.93" width="529.71" height="283.89"/><path class="cls-25" d="M1941.31,1843.43h0c0,14.22,11,25.74,24.58,25.74h-39.7c-13.57,0-24.58,11.52-24.58,25.74h0c0,14.21,11,25.74,24.58,25.74h6.88a23.55,23.55,0,0,0-9.88,2.16h283.49V1817.7H1965.89C1952.32,1817.7,1941.31,1829.22,1941.31,1843.43Z"/><path class="cls-26" d="M601.75,1948.42h0c0,4.58,3.45,8.3,7.7,8.3H2529.93c4.26,0,7.71-3.72,7.71-8.3h0c0-4.59-3.45-8.3-7.71-8.3H609.45C605.2,1940.12,601.75,1943.83,601.75,1948.42Z"/><path class="cls-27" d="M2275.15,1972.12H1959a23,23,0,0,1-23-23h0a23,23,0,0,1,23-23h316.16a23,23,0,0,1,23,23h0A23,23,0,0,1,2275.15,1972.12Z"/><path class="cls-10" d="M2268.72,1926.18H1952.56a23,23,0,0,1-23-23h0a23,23,0,0,1,23-23h316.16a23,23,0,0,1,23,23h0A23,23,0,0,1,2268.72,1926.18Z"/><path class="cls-28" d="M2305.82,1880.24H1989.66a23,23,0,0,1-23-23h0a23,23,0,0,1,23-23h316.16a23,23,0,0,1,23,23h0A23,23,0,0,1,2305.82,1880.24Z"/><polygon class="cls-29" points="1903.69 885.58 1907.71 912.79 1864.64 924.1 1865.62 964.62 1834.77 978.35 1841.72 993.97 1882.98 975.6 1882.06 937.21 1926.86 925.44 1920.81 884.49 1903.69 885.58"/><path class="cls-30" d="M1496.37,799.43l8.3-20.6a108.16,108.16,0,0,1-24.1-15.09,13.51,13.51,0,0,1-2.19-18.35l.51-.7a13.49,13.49,0,0,1,19.66-2.27A79,79,0,0,0,1520.44,756c12.36,5,22.74,3.62,26.23-5.05,3.32-8.24-1.52-16.24-15.38-28.13-20-17.15-31.51-34.37-23-55.4,7.69-19.08,27.16-28.63,52.2-23.83l8.3-20.6,21.24,8.57-7.68,19.07a100.37,100.37,0,0,1,18.63,10.83,13.5,13.5,0,0,1,2.72,18.79h0a13.51,13.51,0,0,1-19.25,2.6,71.93,71.93,0,0,0-18-10.38c-14.09-5.68-21.09-1.44-23.54,4.63-2.88,7.16,2.87,14.77,18.5,29.13,22.14,19.5,27.74,35.62,19.87,55.14-7.77,19.29-28.07,30.27-54.75,24.56L1517.62,808Z"/><path class="cls-31" d="M1535.63,1019.23a8.63,8.63,0,0,1-1.48,10.87,84.92,84.92,0,0,1-27,16.26c-16.87,6.33-35.6,6.94-52.48-.72-10.54-4.79-20.2-13.42-27-24.57l-10,3.74a6.55,6.55,0,0,1-8.43-3.83l-.1-.26a6.55,6.55,0,0,1,3.83-8.44l8.18-3.07c-1.31-2.71-2.24-4.41-2.81-5.94a63.67,63.67,0,0,1-2.59-9.24l-8.44,3.17a6.56,6.56,0,0,1-8.44-3.83h0a6.56,6.56,0,0,1,3.84-8.44l10.22-3.84c-1.6-12.81.09-25.4,4.88-36,8.14-17.93,23.48-30.69,41.12-37.31a73.9,73.9,0,0,1,25.58-5.07,8.83,8.83,0,0,1,8.92,8.42v.15a8.86,8.86,0,0,1-8.54,9.25,63.22,63.22,0,0,0-19.89,4.22c-11.25,4.22-21.16,12-26.84,24.07a39.28,39.28,0,0,0-3,23.88l57.52-21.59a6.55,6.55,0,0,1,8.44,3.83h0a6.56,6.56,0,0,1-3.83,8.44L1437.29,986c.8,2.91,1.6,5.82,2.27,7.61.86,2.3,1.73,4.6,3.13,7.57l60.21-22.59a6.68,6.68,0,0,1,8.61,3.91h0a6.68,6.68,0,0,1-3.91,8.61L1450,1012.72a41.64,41.64,0,0,0,16.88,14.66c12.56,5.5,24.13,5.24,36.91.44a72.19,72.19,0,0,0,19.2-10.82,8.62,8.62,0,0,1,12.69,2.23Z"/><polygon class="cls-32" points="1378.6 814.2 1352.48 816.85 1343.58 775.3 1304.91 774.47 1293.16 744.47 1277.98 750.41 1293.69 790.54 1330.33 791.33 1339.59 834.56 1378.89 830.57 1378.6 814.2"/><path class="cls-33" d="M1680.4,783.13l27.94,9.22S1752.64,778,1757,769s5.59-30.93,11.89-31.53,18.49,1.45,21.39,16.44c2.11,10.89-13.83,42.34-11.34,45.69,1.55,2.1,17.46,7.85,29.15,11.87A21.75,21.75,0,0,1,1822.51,829v0A12,12,0,0,1,1815,841.9l-8,3.11,2.56,8.3a12,12,0,0,1-7.57,14.86l-6.22,2.09,2,5a12,12,0,0,1-7.74,15.84l-5.43,1.58.22,1.46a12,12,0,0,1-8.71,13.39l-5.4,1.41-74.41-24.56a52.93,52.93,0,0,1-18.86-10.95l-24.71-13a6.14,6.14,0,0,1-2.88-7.46l22.91-66A6.12,6.12,0,0,1,1680.4,783.13Z"/><path class="cls-34" d="M1238.42,1078.68l5.91-29.32,27.51-11.75a4.12,4.12,0,0,0,.41-7.37l-26.06-14.68-2.68-29.8a4.1,4.1,0,0,0-6.87-2.65l-22,20.24-29.16-6.66a4.11,4.11,0,0,0-4.66,5.72l12.45,27.19-15.35,25.68a4.11,4.11,0,0,0,4,6.19l29.72-3.43,19.67,22.53A4.12,4.12,0,0,0,1238.42,1078.68Z"/><path class="cls-35" d="M879.45,1798.88s-36.66,26.43-42.43,34.32c-8.32,11.36,62.11,32.6,54.43,19.3-1.77-3.06-6.84-13.35-7.06-14.36-1.18-5.42,13.76-20,13.76-20Z"/><path class="cls-36" d="M910.5,1874.72l-24.9-35.18s-15.54-3.61-31.5-21.56c0,0-14.34,5.48-23.16,17.34a406.76,406.76,0,0,0,42.35,38.18,117.66,117.66,0,0,0,36.26,20.59C930.59,1901.2,910.5,1874.72,910.5,1874.72Z"/><path class="cls-37" d="M573.06,1317.13s4.51,4,6.1,5.2c1.87,1.42,7.78,5.26,7.78,5.26s21.4,12.17,22.13,10.57.69-6.22-.37-7.44-4.14-2.46-5.19-3.68-1.42-3.67-.06-5,8.67,2.64,8.67,2.64,5.93,3.29,8.4,7.26c8.58,13.77,6,14.57,7.13,16.31,1.36,2,31.37,15.68,31.37,15.68s89.74,37.31,94.57,39.34h.06c.66,4.16-1.57,8-2.71,11.66-2.14,12.82-6,13.67-8.87,26-13.76-7-109-59.45-118.72-64.92,0,0-14.51-2.47-23.58-4.33s-17-7.59-19.45-8.5a85.05,85.05,0,0,1-17.4-10.54c-7.69-6,2.23-3.72,2.23-3.72s16.16,8.57,16.58,7.21c.32-1.05-8.76-5.22-17.33-11.73-2.21-1.67-4.38-3.33-6.36-4.87-5.2-4-4.29-8.28,1.8-4.89a69.38,69.38,0,0,1,8,5.09c2.5,2,5.41,3,7.76,4.35,4.66,2.67,8,4.68,8,4.43s1.28-.43-1-2.27c-2.75-2.22-9.6-5.69-13.39-9.26-2.16-2-6.91-6-6.91-6s-6.09-7.29-5.8-7.77c1.62-2.62,7.16,1.24,9.73,4.35,2.64,1.18,7.53,5.49,7.53,5.49s11.77,6.57,12.67,5c.39-.68-6.37-5.56-12.28-11.34-5.48-5.38-10.17-11.67-9.3-12.87C566.35,1311.79,573.06,1317.13,573.06,1317.13Z"/><path class="cls-38" d="M823.38,1527.21l5.8,28.68L975,1688.5,870.61,1794.11l28.18,28.79s154.13-113.17,159.68-128C1067,1672.06,948,1520.81,948,1520.81Z"/><path class="cls-35" d="M722.28,1874.05s-29.41,32-35.18,39.94c-8.32,11.36,53.79,28.13,46.1,14.83-1.76-3.06-6.83-13.36-7.05-14.37-1.18-5.41,13.75-20,13.75-20Z"/><path class="cls-36" d="M766,1927.79,725.47,1913s-15.3,7-38.63,1.26c0,0-8.23,11.56-8.75,26.33,0,0,76.73,9.79,98.08,3.68S766,1927.79,766,1927.79Z"/><path class="cls-38" d="M828.37,1540.5l6.55,181-129.36,158.6,35,19.17s143.1-122.82,158.81-157c9.75-21.22,42.54-213,42.54-213Z"/><path class="cls-5" d="M946,1525.65c-11.85-26.76-10.48-218.61-56.63-263.55-16.23,2.75-27.81,4.28-30.52,5-2.41,19.76-5.06,92.28-6.69,158.75-1.08,44.27,0,90.71-5.42,115.19C843.32,1556.21,956.8,1550.09,946,1525.65Z"/><path class="cls-39" d="M821.05,1277c-12.95,3-22.49,5-39.47,30.12-16.26,24-52.35,81-52.35,81l-95.07-42.23L629.72,1394s107.55,55.91,122.72,50.87,57.84-67.4,61-71.61c.74-1-3.58,66.61-3.58,77.41s-20.62,104.82-20.62,104.82,52.32,12.88,62.53-10.51c31.31-71.71,7.28-278,7.28-278S830.37,1274.87,821.05,1277Z"/><path class="cls-35" d="M1016.32,1071.67c-4-3.34-5.74-11.36-6.39-16.52l-1.78-6.83c1.62-.67,33.32-5.18,42.88-5.43.94,3,1.4,5.59,1.1,7.22-1.42,7.81-11.4,58.55-11.4,58.55l-27.3.54S1019.37,1079.12,1016.32,1071.67Z"/><path class="cls-40" d="M900,1273.33s18.73,53.31,34.15,45.63,102-96,102.88-100.24,6.85-112.65,6.85-112.65l-34.25-6.82L990,1188s-63.38,60.58-76.23,66.56A23.81,23.81,0,0,0,900,1273.33Z"/><path class="cls-41" d="M950.6,1538.48c10.37,0,14.2-1.44,21.11-3.52,0,0-19.75-111.3-31.23-221.68-4.54-43.6-8.75-61.48-26.74-58.32-5.2.91-19.29,6.28-24.41,7.14C934.54,1390,934.7,1488.44,941.09,1517,944.3,1531.32,947.1,1538.57,950.6,1538.48Z"/><path class="cls-35" d="M884.56,1242.78l4.74,19.32s1.08,16.83-6.73,18.34c-9.42,1.82-23.41-12.27-23.41-12.27l-8.1-54.5Z"/><path class="cls-35" d="M884.56,1242.78l4.74,19.32s1.08,16.83-6.73,18.34c-9.42,1.82-23.41-12.27-23.41-12.27l-8.1-54.5Z"/><path class="cls-42" d="M851.14,1213.92l33.42,28.86,3.54,14.43C875.32,1254.14,857.11,1240.08,851.14,1213.92Z"/><path class="cls-35" d="M884.68,1163.78c8.08,0,15.36,5.59,18.2,13.66a171.14,171.14,0,0,1,7.29,28c3.54,21-8.39,40.14-18.78,41.68s-35.12-5.35-40.59-35c-2.34-12.72-5.43-29.41,5-38.18C864,1167.05,875.38,1163.81,884.68,1163.78Z"/><path class="cls-43" d="M854.18,1234.67s-36.61-32.62-38.21-58.1,21.94-39.14,42.07-39.85a137,137,0,0,1,24.63,1.27c20.16,2.54,33.23,11.48,28.63,28-6.17,22.18-48,3.47-56.58,10.35-7.06,5.69,4.39,19.35-2.47,24.56-6.45,4.9-3.17,3.24-1,12.56A165.6,165.6,0,0,1,854.18,1234.67Z"/><path class="cls-35" d="M840.06,1205.12c.91,6.11,4.64,10.62,8.34,10.07s6-5.94,5.06-12-4.64-10.62-8.34-10.07S839.16,1199,840.06,1205.12Z"/><path class="cls-42" d="M1018.18,1048.24a43.82,43.82,0,0,1,11.82,11.17s15.44-9.89,14.9-13c-.72-4.16-16.5,3.56-16.5,3.56Z"/><path class="cls-44" d="M620.14,843.28,1037,1057.9c22.43,11.55,50.79,1.15,63.34-23.22L1206.73,828c12.55-24.37,4.54-53.49-17.89-65L772,548.29c-22.43-11.55-50.79-1.15-63.34,23.22L602.25,778.24C589.7,802.61,597.71,831.74,620.14,843.28Z"/><rect class="cls-38" x="834.54" y="590.37" width="70.54" height="560.18" transform="translate(-302.27 1245.3) rotate(-62.76)"/><rect class="cls-5" x="741.24" y="602.32" width="123.51" height="68.51" transform="translate(381.29 -297.34) rotate(27.29)"/><path class="cls-35" d="M1018.06,1047.91c-.72-2-2.15-4.7-1.45-5.77,4.45-6.79-.34-14.17-3.58-8.4-1.88,3.36-5.16,10.74-4.88,14.58.2,2.78,3,13.38,3,13.38S1022.17,1059,1018.06,1047.91Z"/><path class="cls-35" d="M2273.7,1762.06s-2.57,32-.48,42.34c1.11,5.56,7.32,17,4.47,22.24s-6.1,6.54-6.1,6.54l-73.8,1.17c-4,.06-1.37-2.48,1.87-4.82,5.31-3.84,9.59-6.38,26.54-14.44,1.1-.53,5.13-3,6.58-3.91a50.9,50.9,0,0,0,10.56-9.18c5.3-5.8,5.76-33.94,5.76-33.94Z"/><path class="cls-38" d="M2216,1337.34s-31.73-15.64-25.62,18.37,52.58,416.5,52.58,416.5l43.53,2.41s5.56-127.52,4.34-145.83-8.43-46.64-8.43-46.64l-3.7-113.13-41.07-139.68Z"/><path class="cls-45" d="M2232.79,1811.17c19.52,4.93,33.95,1.58,42-1.62,2.08,5.8,4.84,13.08,3.38,17.27-1.8,5.14-4.13,7.42-6.39,7.48-17.82.46-65.52,0-79.11.14a2.18,2.18,0,0,1-1.73-3.59C2194.33,1826.89,2231.33,1812,2232.79,1811.17Z"/><path class="cls-35" d="M2190.4,1107.48s-26.83-51.61-31-70.55-18.57-114.35-17.35-120.5,24-20.93,21.19-26.15-24.52-5.23-29.49-4.78-15,3.34-19.23,6.87,4.81,117.86,7.52,142.47,36,100.42,36,100.42Z"/><path class="cls-35" d="M2399.37,1509.67s22.12-23.2,27-32.57c2.64-5,5-17.82,10.54-20.09s8.86-1.24,8.86-1.24l58.05,45.59c3.16,2.49-.5,2.79-4.5,2.57-6.54-.37-11.46-1.09-29.7-5.51-1.19-.29-5.9-.87-7.58-1.11a50.88,50.88,0,0,0-14,.47c-7.77,1.17-25.86,22.73-25.86,22.73Z"/><path class="cls-46" d="M2462.07,1497.31c-12.05-16.12-25.37-22.61-33.65-25.21,2-5.82,4.27-13.42,8-15.76,4.63-2.86,7.82-2.27,9.61-.89,14.13,10.87,51.13,40.62,61.8,49a2.18,2.18,0,0,1-.93,3.88C2501.84,1509.33,2463.75,1497.55,2462.07,1497.31Z"/><path class="cls-36" d="M2399.89,1091.76c-13.77-28.88-44.28-44.78-73.83-37.09-10.6-14.34-27-24.38-44.07-26.8-33.65-4.77-77.08,11.56-72.65,46.69-10.64,24.58-8,58.44,13.21,75-3.9,32.3,28.49,61,66.82,57.09,15.42,21.29,42.24,33.78,67.31,28.92,6-1.17,15.16-3.36,16.74-3.09-2-.22,43.72,29.7,75.23-23.58C2480.8,1154.58,2449.14,1093.8,2399.89,1091.76Z"/><path class="cls-47" d="M2203.24,1349.67s71.15-31.63,72.27-28c8.91,28.73,36.67,19.46,53.14,70.06,6.9,21.19,14,162.14,14,162.14s28.06-23.28,68.15-64c3.07-3.12,33.21,25.54,33.21,25.54-79.57,107.51-113.9,113.12-127.18,107.1-27.72-12.56-86.2-188.33-86.11-188.31C2223.68,1420.53,2203.24,1349.67,2203.24,1349.67Z"/><path class="cls-35" d="M2321.19,1151.11s102.83-.13,124.84-1.4c19.93-1.15,99,.86,102,.5s23.52-35,26.92-31.24-11.37,17.16-6.8,20.65,53.61-4.33,53-.7c-1.22,6.78-29.84,5.92-29.81,9.19s30-1.83,32,3.61-28.78,2.21-30,4.64,28.58,6.87,25.53,11.93c-1.66,2.74-26.41-4.59-26.29-.85s18.18,12.26,16,15.25-14.17-9.16-24.65-9.31-18-5.61-34.71-1c-8.26,2.27-71.31,10-124.59,14.53-54.61,4.67-99.38,6.15-99.38,6.15Z"/><path class="cls-10" d="M2168.71,1223.81c-1.36-16.51,1.89-29.23,2.63-34.71-5-17.15-15.62-53.73-19.44-60.92,0,0,17.9-34.41,36.23-34.17,0,0,18.72,42.19,33.19,49.73.21,0,5.12,2.19,7.28,2.18,14-.1,62.8-1.58,71.91-1.75l-5.13,69.27c-35.38,69.36-25.8,105.75-12.34,119.21,6.33,6.33-88.29,32-92.64,23.06C2185.26,1345.14,2171.47,1257.18,2168.71,1223.81Z"/><path class="cls-10" d="M2275.7,1146.79c9-4.3,74.18-2.15,74.18-2.15s9.11,45.39,1.75,56.3c0,0-58.27,8.67-56.62,13.45Z"/><path class="cls-35" d="M2258.62,1117.63s-1.15,24.75,0,35.06-10.58,34.48-32.43,34.9-3.2-23.19-1.29-33.34,4.21-49.86,4.21-49.86Z"/><path class="cls-42" d="M2229.12,1104.39s-.53,9.22-1.3,19.91c6.89,8.22,17.48,12.42,30.36,7.42.14-7.67.44-14.09.44-14.09Z"/><path class="cls-35" d="M2260.43,1043.87a36.29,36.29,0,0,1,19.31,16.08c7,12.37,9.87,47.6-16.81,62.11s-45-9.87-43.75-32.35S2227.27,1037.61,2260.43,1043.87Z"/><path class="cls-35" d="M2213.81,1082.28c1.81,5.57,5.9,9.23,9.15,8.18s4.4-6.42,2.6-12-5.91-9.23-9.15-8.17S2212,1076.72,2213.81,1082.28Z"/><path class="cls-36" d="M2256.7,1042.88s13.55,37,27.41,41.22,12.4,22.25,12.4,22.25,2.56-41.79-10-52.27S2256.7,1042.88,2256.7,1042.88Z"/><path class="cls-35" d="M2278,1091.18c-2.26,5.71-1,11.57,2.9,13.1s8.82-1.87,11.07-7.58,1-11.57-2.9-13.09S2280.25,1085.47,2278,1091.18Z"/><path class="cls-42" d="M2110.66,901.17s30.13,1.32,33.66,1.32,13.83-10.65,13.83-10.65Z"/><circle class="cls-10" cx="2113.53" cy="785.52" r="116.96" transform="translate(-121.01 484.03) rotate(-12.7)"/><path class="cls-48" d="M2193.86,729.14a98.14,98.14,0,1,1-136.71-23.95A98.13,98.13,0,0,1,2193.86,729.14Z"/><path class="cls-10" d="M2124.86,854.56l-4.28-15.82a79.89,79.89,0,0,1-20.89,1.84,10,10,0,0,1-9.46-9.83v-.64A10,10,0,0,1,2100.79,820a58.3,58.3,0,0,0,18.9-1.77c9.49-2.57,15-8,13.19-14.65-1.71-6.32-8.12-8.88-21.57-9.71-19.43-1.18-33.83-6.21-38.2-22.36-4-14.65,3.25-28.93,20.12-37.25L2089,718.48l16.32-4.41,4,14.65A73.66,73.66,0,0,1,2125,726.8a10,10,0,0,1,10,9.85h0a10,10,0,0,1-10.17,10.09,53.16,53.16,0,0,0-15.19,1.88c-10.82,2.93-13.05,8.54-11.79,13.2,1.48,5.49,8.25,7.41,23.84,8.91,21.71,1.64,32.17,8.63,36.23,23.62,4,14.81-3.06,30.3-21.31,38.81l4.59,17Z"/><path class="cls-35" d="M2144.32,902.49l12.44-11.18s-5.87-7-3.43-8.37c4-2.19,10.76,6.29,10.15,8.35s-7.9,8.7-7.9,8.7Z"/></g></svg>